<?xml version="1.0" encoding="iso-8859-1"?>
<!-- Uploaded to: SVG Repo, www.svgrepo.com, Generator: SVG Repo Mixer Tools -->
<svg height="800px" width="800px" version="1.1" id="Layer_1" xmlns="http://www.w3.org/2000/svg" xmlns:xlink="http://www.w3.org/1999/xlink" 
	 viewBox="0 0 512 512" xml:space="preserve">
<path style="fill:#EFF2FA;" d="M202.878,379.586H26.483c-4.871,0-8.828-3.961-8.828-8.828v-256c0-4.866,3.957-8.828,8.828-8.828
	h397.241c4.871,0,8.828,3.961,8.828,8.828v59.889c6.098,2.839,11.982,6.028,17.655,9.553V61.793
	c0-14.603-11.88-26.483-26.483-26.483H26.483C11.88,35.31,0,47.19,0,61.793v308.966c0,14.603,11.88,26.483,26.483,26.483h183.475
	C207.29,391.513,204.895,385.644,202.878,379.586z"/>
<circle style="fill:#FF6464;" cx="35.31" cy="70.621" r="8.828"/>
<circle style="fill:#FFE182;" cx="61.793" cy="70.621" r="8.828"/>
<circle style="fill:#A5D76E;" cx="88.276" cy="70.621" r="8.828"/>
<path style="fill:#FFFFFF;" d="M414.897,79.448h-291.31c-4.875,0-8.828-3.953-8.828-8.828l0,0c0-4.875,3.953-8.828,8.828-8.828
	h291.31c4.875,0,8.828,3.953,8.828,8.828l0,0C423.724,75.496,419.772,79.448,414.897,79.448z"/>
<path style="fill:#C7CFE2;" d="M361.931,211.862c-63.38,0-114.759,51.38-114.759,114.759s51.379,114.759,114.759,114.759
	s114.759-51.38,114.759-114.759S425.31,211.862,361.931,211.862z M361.931,388.414c-34.127,0-61.793-27.666-61.793-61.793
	s27.666-61.793,61.793-61.793s61.793,27.666,61.793,61.793S396.059,388.414,361.931,388.414z"/>
<path style="fill:#959CB3;" d="M503.172,335.448c4.875,0,8.828-3.953,8.828-8.828s-3.953-8.828-8.828-8.828h-0.446
	c-0.403-6.493-1.096-12.905-2.346-19.13l0.264-0.071c4.71-1.262,7.503-6.102,6.242-10.812l0,0c-1.262-4.71-6.102-7.503-10.812-6.242
	l-0.346,0.093c-2.063-6.136-4.562-12.057-7.412-17.785l0.346-0.201c4.223-2.438,5.67-7.837,3.231-12.058
	c-2.438-4.223-7.837-5.67-12.059-3.231l-0.265,0.153c-3.571-5.367-7.571-10.403-11.823-15.22l0.298-0.298
	c3.447-3.447,3.447-9.036,0-12.483c-3.447-3.448-9.036-3.448-12.483,0l-0.298,0.298c-4.817-4.253-9.853-8.252-15.22-11.823
	l0.153-0.265c2.438-4.222,0.991-9.621-3.231-12.058c-4.222-2.438-9.621-0.991-12.059,3.231l-0.201,0.346
	c-5.727-2.85-11.649-5.348-17.785-7.412l0.093-0.346c1.261-4.71-1.533-9.55-6.242-10.812c-4.71-1.262-9.549,1.533-10.812,6.242
	l-0.071,0.264c-6.227-1.25-12.638-1.944-19.13-2.346v-0.447c0-4.875-3.953-8.828-8.828-8.828c-4.875,0-8.828,3.953-8.828,8.828
	v0.446c-6.493,0.403-12.905,1.096-19.13,2.346l-0.071-0.264c-1.262-4.71-6.102-7.505-10.812-6.242
	c-4.71,1.262-7.503,6.102-6.242,10.812l0.093,0.346c-6.136,2.063-12.057,4.562-17.785,7.412l-0.201-0.346
	c-2.438-4.222-7.837-5.668-12.059-3.231c-4.222,2.438-5.668,7.837-3.231,12.058l0.153,0.265c-5.367,3.572-10.403,7.571-15.22,11.823
	l-0.298-0.298c-3.447-3.448-9.036-3.448-12.483,0c-3.447,3.447-3.447,9.036,0,12.483l0.298,0.298
	c-4.253,4.817-8.253,9.853-11.823,15.22l-0.265-0.153c-4.223-2.438-9.621-0.991-12.058,3.231c-2.438,4.222-0.991,9.621,3.231,12.058
	l0.346,0.201c-2.85,5.727-5.35,11.649-7.412,17.785l-0.346-0.093c-4.71-1.262-9.549,1.533-10.812,6.242l0,0
	c-1.262,4.71,1.533,9.549,6.242,10.812l0.264,0.071c-1.25,6.227-1.944,12.638-2.346,19.13h-0.448c-4.875,0-8.828,3.953-8.828,8.828
	c0,4.875,3.953,8.828,8.828,8.828h0.446c0.403,6.493,1.096,12.905,2.346,19.13l-0.264,0.071c-4.71,1.262-7.503,6.102-6.242,10.812
	c1.261,4.71,6.102,7.503,10.812,6.242l0.345-0.093c2.063,6.136,4.562,12.059,7.413,17.785l-0.346,0.201
	c-4.223,2.438-5.67,7.837-3.231,12.058c2.438,4.222,7.837,5.668,12.058,3.231l0.265-0.153c3.571,5.367,7.571,10.403,11.823,15.22
	l-0.298,0.298c-3.447,3.448-3.447,9.036,0,12.484c3.447,3.447,9.036,3.447,12.483,0l0.298-0.298
	c4.817,4.253,9.853,8.253,15.22,11.823l-0.153,0.265c-2.438,4.222-0.991,9.621,3.231,12.059s9.621,0.991,12.059-3.231l0.201-0.346
	c5.727,2.85,11.649,5.35,17.785,7.412l-0.093,0.346c-1.261,4.71,1.533,9.549,6.242,10.812c4.71,1.262,9.549-1.533,10.812-6.242
	l0.071-0.264c6.227,1.25,12.638,1.944,19.13,2.346v0.447c0,4.875,3.953,8.828,8.828,8.828s8.828-3.953,8.828-8.828v-0.446
	c6.493-0.403,12.905-1.096,19.13-2.346l0.071,0.264c1.262,4.71,6.102,7.503,10.812,6.242c4.71-1.262,7.503-6.102,6.242-10.812
	l-0.093-0.346c6.136-2.063,12.057-4.562,17.785-7.412l0.201,0.346c2.438,4.222,7.837,5.668,12.059,3.231s5.668-7.837,3.231-12.058
	l-0.153-0.265c5.367-3.571,10.403-7.571,15.22-11.823l0.298,0.298c3.447,3.447,9.036,3.447,12.483,0
	c3.447-3.448,3.447-9.036,0-12.484l-0.298-0.298c4.253-4.817,8.253-9.853,11.823-15.22l0.265,0.153
	c4.223,2.438,9.621,0.991,12.059-3.231c2.438-4.223,0.991-9.621-3.231-12.059l-0.346-0.201c2.85-5.727,5.35-11.649,7.413-17.785
	l0.345,0.093c4.71,1.262,9.549-1.533,10.812-6.242s-1.533-9.549-6.242-10.812l-0.264-0.071c1.25-6.227,1.944-12.638,2.346-19.13
	H503.172z M361.931,406.069c-43.879,0-79.448-35.571-79.448-79.448c0-43.879,35.57-79.448,79.448-79.448s79.448,35.57,79.448,79.448
	C441.379,370.498,405.81,406.069,361.931,406.069z"/>
<path style="fill:#AFB9D2;" d="M361.931,211.862c-63.38,0-114.759,51.379-114.759,114.759s51.379,114.759,114.759,114.759
	S476.69,390.001,476.69,326.621S425.311,211.862,361.931,211.862z M361.931,423.724c-53.629,0-97.103-43.475-97.103-97.103
	s43.475-97.103,97.103-97.103s97.103,43.475,97.103,97.103S415.56,423.724,361.931,423.724z"/>
<g>
	<circle style="fill:#707487;" cx="247.172" cy="326.621" r="8.828"/>
	<circle style="fill:#707487;" cx="476.69" cy="326.621" r="8.828"/>
	<circle style="fill:#707487;" cx="361.931" cy="211.862" r="8.828"/>
	<circle style="fill:#707487;" cx="361.931" cy="441.379" r="8.828"/>
</g>
<path style="fill:#D7DEED;" d="M194.207,326.621c0-92.632,75.092-167.724,167.724-167.724c18.529,0,36.3,3.123,52.966,8.671v-35.154
	c0-4.875-3.953-8.828-8.828-8.828H44.138c-4.875,0-8.828,3.953-8.828,8.828v220.69c0,4.875,3.953,8.828,8.828,8.828h153.864
	C195.56,350.539,194.207,338.743,194.207,326.621z"/>
<path style="fill:#C7CFE2;" d="M238.345,167.724h-88.276c-4.875,0-8.828-3.953-8.828-8.828l0,0c0-4.875,3.953-8.828,8.828-8.828
	h88.276c4.875,0,8.828,3.953,8.828,8.828l0,0C247.172,163.772,243.22,167.724,238.345,167.724z"/>
<g>
	<path style="fill:#AFB9D2;" d="M114.759,167.724H61.793c-4.875,0-8.828-3.953-8.828-8.828l0,0c0-4.875,3.953-8.828,8.828-8.828
		h52.966c4.875,0,8.828,3.953,8.828,8.828l0,0C123.586,163.772,119.634,167.724,114.759,167.724z"/>
	<path style="fill:#AFB9D2;" d="M79.448,256H61.793c-4.875,0-8.828-3.953-8.828-8.828l0,0c0-4.875,3.953-8.828,8.828-8.828h17.655
		c4.875,0,8.828,3.953,8.828,8.828l0,0C88.276,252.047,84.323,256,79.448,256z"/>
	<path style="fill:#AFB9D2;" d="M79.448,291.31H61.793c-4.875,0-8.828-3.953-8.828-8.828l0,0c0-4.875,3.953-8.828,8.828-8.828
		h17.655c4.875,0,8.828,3.953,8.828,8.828l0,0C88.276,287.358,84.323,291.31,79.448,291.31z"/>
	<path style="fill:#AFB9D2;" d="M79.448,326.621H61.793c-4.875,0-8.828-3.953-8.828-8.828l0,0c0-4.875,3.953-8.828,8.828-8.828
		h17.655c4.875,0,8.828,3.953,8.828,8.828l0,0C88.276,322.668,84.323,326.621,79.448,326.621z"/>
</g>
<g>
	<path style="fill:#C7CFE2;" d="M132.414,203.034H61.793c-4.875,0-8.828-3.953-8.828-8.828l0,0c0-4.875,3.953-8.828,8.828-8.828
		h70.621c4.875,0,8.828,3.953,8.828,8.828l0,0C141.241,199.082,137.289,203.034,132.414,203.034z"/>
	<path style="fill:#C7CFE2;" d="M176.552,256h-61.793c-4.875,0-8.828-3.953-8.828-8.828l0,0c0-4.875,3.953-8.828,8.828-8.828h61.793
		c4.875,0,8.828,3.953,8.828,8.828l0,0C185.379,252.047,181.427,256,176.552,256z"/>
	<path style="fill:#C7CFE2;" d="M150.069,326.621h-35.31c-4.875,0-8.828-3.953-8.828-8.828l0,0c0-4.875,3.953-8.828,8.828-8.828
		h35.31c4.875,0,8.828,3.953,8.828,8.828l0,0C158.897,322.668,154.944,326.621,150.069,326.621z"/>
	<path style="fill:#C7CFE2;" d="M150.069,291.31h-35.31c-4.875,0-8.828-3.953-8.828-8.828l0,0c0-4.875,3.953-8.828,8.828-8.828
		h35.31c4.875,0,8.828,3.953,8.828,8.828l0,0C158.897,287.358,154.944,291.31,150.069,291.31z"/>
</g>
<path style="fill:#AFB9D2;" d="M185.379,203.034h-17.655c-4.875,0-8.828-3.953-8.828-8.828l0,0c0-4.875,3.953-8.828,8.828-8.828
	h17.655c4.875,0,8.828,3.953,8.828,8.828l0,0C194.207,199.082,190.254,203.034,185.379,203.034z"/>
</svg>